<svg width="289" height="59" viewBox="0 0 289 59" fill="none" xmlns="http://www.w3.org/2000/svg">
<path d="M0.589844 37.9607V56.1108C7.84986 56.1108 10.3851 51.0691 10.3851 46.7476V30.3262C2.77937 30.2109 0.589844 35.2238 0.589844 37.9607Z" fill="#71BF44"/>
<path d="M12.978 31.3345V56.1108C20.238 56.1108 22.7733 51.0691 22.7733 46.7476V23.7C15.1676 23.5847 12.978 28.5976 12.978 31.3345Z" fill="#71BF44"/>
<path d="M25.366 24.4202V56.1107C32.626 56.1107 35.1612 51.0691 35.1612 46.7476V16.7856C27.5555 16.6704 25.366 21.6833 25.366 24.4202Z" fill="#71BF44"/>
<path d="M37.7542 17.794V56.1107C45.0142 56.1107 47.5494 51.0691 47.5494 46.7476V10.1594C39.9437 10.0442 37.7542 15.0571 37.7542 17.794Z" fill="#71BF44"/>
<path d="M70.7298 56.2384V49.2384H71.4698V56.2384H70.7298ZM74.9474 56.2384V49.2384H75.5574L80.3874 55.3184H80.0674V49.2384H80.7974V56.2384H80.1874L75.3674 50.1584H75.6874V56.2384H74.9474ZM84.2822 56.2384V49.2384H84.8922L89.7222 55.3184H89.4022V49.2384H90.1322V56.2384H89.5222L84.7022 50.1584H85.0222V56.2384H84.2822ZM96.677 56.2984C96.1503 56.2984 95.6603 56.2117 95.207 56.0384C94.7603 55.8584 94.3703 55.6084 94.037 55.2884C93.7103 54.9617 93.4536 54.5851 93.267 54.1584C93.087 53.7251 92.997 53.2517 92.997 52.7384C92.997 52.2251 93.087 51.7551 93.267 51.3284C93.4536 50.8951 93.7103 50.5184 94.037 50.1984C94.3703 49.8717 94.7603 49.6217 95.207 49.4484C95.6536 49.2684 96.1436 49.1784 96.677 49.1784C97.2036 49.1784 97.6903 49.2684 98.137 49.4484C98.5836 49.6217 98.9703 49.8684 99.297 50.1884C99.6303 50.5084 99.887 50.8851 100.067 51.3184C100.254 51.7517 100.347 52.2251 100.347 52.7384C100.347 53.2517 100.254 53.7251 100.067 54.1584C99.887 54.5917 99.6303 54.9684 99.297 55.2884C98.9703 55.6084 98.5836 55.8584 98.137 56.0384C97.6903 56.2117 97.2036 56.2984 96.677 56.2984ZM96.677 55.6384C97.097 55.6384 97.4836 55.5684 97.837 55.4284C98.197 55.2817 98.507 55.0784 98.767 54.8184C99.0336 54.5517 99.2403 54.2451 99.387 53.8984C99.5336 53.5451 99.607 53.1584 99.607 52.7384C99.607 52.3184 99.5336 51.9351 99.387 51.5884C99.2403 51.2351 99.0336 50.9284 98.767 50.6684C98.507 50.4017 98.197 50.1984 97.837 50.0584C97.4836 49.9117 97.097 49.8384 96.677 49.8384C96.257 49.8384 95.867 49.9117 95.507 50.0584C95.147 50.1984 94.8336 50.4017 94.567 50.6684C94.307 50.9284 94.1003 51.2351 93.947 51.5884C93.8003 51.9351 93.727 52.3184 93.727 52.7384C93.727 53.1517 93.8003 53.5351 93.947 53.8884C94.1003 54.2417 94.307 54.5517 94.567 54.8184C94.8336 55.0784 95.147 55.2817 95.507 55.4284C95.867 55.5684 96.257 55.6384 96.677 55.6384ZM104.981 56.2384L101.881 49.2384H102.681L105.581 55.8284H105.141L108.061 49.2384H108.811L105.711 56.2384H104.981ZM109.692 56.2384L112.892 49.2384H113.622L116.822 56.2384H116.042L113.102 49.6684H113.402L110.462 56.2384H109.692ZM110.952 54.3684L111.172 53.7684H115.242L115.462 54.3684H110.952ZM120.188 56.2384V49.8784H117.728V49.2384H123.388V49.8784H120.928V56.2384H120.188ZM125.77 56.2384V49.2384H126.51V56.2384H125.77ZM133.048 56.2984C132.521 56.2984 132.031 56.2117 131.578 56.0384C131.131 55.8584 130.741 55.6084 130.408 55.2884C130.081 54.9617 129.825 54.5851 129.638 54.1584C129.458 53.7251 129.368 53.2517 129.368 52.7384C129.368 52.2251 129.458 51.7551 129.638 51.3284C129.825 50.8951 130.081 50.5184 130.408 50.1984C130.741 49.8717 131.131 49.6217 131.578 49.4484C132.025 49.2684 132.515 49.1784 133.048 49.1784C133.575 49.1784 134.061 49.2684 134.508 49.4484C134.955 49.6217 135.341 49.8684 135.668 50.1884C136.001 50.5084 136.258 50.8851 136.438 51.3184C136.625 51.7517 136.718 52.2251 136.718 52.7384C136.718 53.2517 136.625 53.7251 136.438 54.1584C136.258 54.5917 136.001 54.9684 135.668 55.2884C135.341 55.6084 134.955 55.8584 134.508 56.0384C134.061 56.2117 133.575 56.2984 133.048 56.2984ZM133.048 55.6384C133.468 55.6384 133.855 55.5684 134.208 55.4284C134.568 55.2817 134.878 55.0784 135.138 54.8184C135.405 54.5517 135.611 54.2451 135.758 53.8984C135.905 53.5451 135.978 53.1584 135.978 52.7384C135.978 52.3184 135.905 51.9351 135.758 51.5884C135.611 51.2351 135.405 50.9284 135.138 50.6684C134.878 50.4017 134.568 50.1984 134.208 50.0584C133.855 49.9117 133.468 49.8384 133.048 49.8384C132.628 49.8384 132.238 49.9117 131.878 50.0584C131.518 50.1984 131.205 50.4017 130.938 50.6684C130.678 50.9284 130.471 51.2351 130.318 51.5884C130.171 51.9351 130.098 52.3184 130.098 52.7384C130.098 53.1517 130.171 53.5351 130.318 53.8884C130.471 54.2417 130.678 54.5517 130.938 54.8184C131.205 55.0784 131.518 55.2817 131.878 55.4284C132.238 55.5684 132.628 55.6384 133.048 55.6384ZM139.577 56.2384V49.2384H140.187L145.017 55.3184H144.697V49.2384H145.427V56.2384H144.817L139.997 50.1584H140.317V56.2384H139.577ZM152.729 56.2384V49.2384H153.339L156.539 54.6984H156.219L159.389 49.2384H159.999V56.2384H159.289V50.3484H159.459L156.539 55.3484H156.189L153.249 50.3484H153.439V56.2384H152.729ZM163.479 56.2384V49.2384H168.279V49.8784H164.219V55.5984H168.429V56.2384H163.479ZM164.139 52.9984V52.3684H167.839V52.9984H164.139ZM171.369 56.2384V49.2384H176.169V49.8784H172.109V55.5984H176.319V56.2384H171.369ZM172.029 52.9984V52.3684H175.729V52.9984H172.029ZM180.618 56.2384V49.8784H178.158V49.2384H183.818V49.8784H181.358V56.2384H180.618ZM188.023 56.2984C187.503 56.2984 187.003 56.2151 186.523 56.0484C186.05 55.8751 185.683 55.6551 185.423 55.3884L185.713 54.8184C185.96 55.0584 186.29 55.2617 186.703 55.4284C187.123 55.5884 187.563 55.6684 188.023 55.6684C188.463 55.6684 188.82 55.6151 189.093 55.5084C189.373 55.3951 189.576 55.2451 189.703 55.0584C189.836 54.8717 189.903 54.6651 189.903 54.4384C189.903 54.1651 189.823 53.9451 189.663 53.7784C189.51 53.6117 189.306 53.4817 189.053 53.3884C188.8 53.2884 188.52 53.2017 188.213 53.1284C187.906 53.0551 187.6 52.9784 187.293 52.8984C186.986 52.8117 186.703 52.6984 186.443 52.5584C186.19 52.4184 185.983 52.2351 185.823 52.0084C185.67 51.7751 185.593 51.4717 185.593 51.0984C185.593 50.7517 185.683 50.4351 185.863 50.1484C186.05 49.8551 186.333 49.6217 186.713 49.4484C187.093 49.2684 187.58 49.1784 188.173 49.1784C188.566 49.1784 188.956 49.2351 189.343 49.3484C189.73 49.4551 190.063 49.6051 190.343 49.7984L190.093 50.3884C189.793 50.1884 189.473 50.0417 189.133 49.9484C188.8 49.8551 188.476 49.8084 188.163 49.8084C187.743 49.8084 187.396 49.8651 187.123 49.9784C186.85 50.0917 186.646 50.2451 186.513 50.4384C186.386 50.6251 186.323 50.8384 186.323 51.0784C186.323 51.3517 186.4 51.5717 186.553 51.7384C186.713 51.9051 186.92 52.0351 187.173 52.1284C187.433 52.2217 187.716 52.3051 188.023 52.3784C188.33 52.4517 188.633 52.5317 188.933 52.6184C189.24 52.7051 189.52 52.8184 189.773 52.9584C190.033 53.0917 190.24 53.2717 190.393 53.4984C190.553 53.7251 190.633 54.0217 190.633 54.3884C190.633 54.7284 190.54 55.0451 190.353 55.3384C190.166 55.6251 189.88 55.8584 189.493 56.0384C189.113 56.2117 188.623 56.2984 188.023 56.2984ZM197.263 56.2384V49.2384H202.063V49.8784H198.003V55.5984H202.213V56.2384H197.263ZM197.923 52.9984V52.3684H201.623V52.9984H197.923ZM204.104 56.2384L206.974 52.3584V52.9284L204.274 49.2384H205.124L207.394 52.3184L207.064 52.3284L209.334 49.2384H210.134L207.464 52.8784V52.3584L210.324 56.2384H209.464L207.044 52.9484H207.354L204.954 56.2384H204.104ZM215.623 56.2984C215.096 56.2984 214.609 56.2117 214.163 56.0384C213.716 55.8584 213.329 55.6084 213.003 55.2884C212.676 54.9684 212.419 54.5917 212.233 54.1584C212.053 53.7251 211.963 53.2517 211.963 52.7384C211.963 52.2251 212.053 51.7517 212.233 51.3184C212.419 50.8851 212.676 50.5084 213.003 50.1884C213.336 49.8684 213.726 49.6217 214.173 49.4484C214.619 49.2684 215.106 49.1784 215.633 49.1784C216.139 49.1784 216.616 49.2651 217.063 49.4384C217.509 49.6051 217.886 49.8584 218.193 50.1984L217.723 50.6684C217.436 50.3751 217.119 50.1651 216.773 50.0384C216.426 49.9051 216.053 49.8384 215.653 49.8384C215.233 49.8384 214.843 49.9117 214.483 50.0584C214.123 50.1984 213.809 50.4017 213.543 50.6684C213.276 50.9284 213.066 51.2351 212.913 51.5884C212.766 51.9351 212.693 52.3184 212.693 52.7384C212.693 53.1584 212.766 53.5451 212.913 53.8984C213.066 54.2451 213.276 54.5517 213.543 54.8184C213.809 55.0784 214.123 55.2817 214.483 55.4284C214.843 55.5684 215.233 55.6384 215.653 55.6384C216.053 55.6384 216.426 55.5717 216.773 55.4384C217.119 55.3051 217.436 55.0917 217.723 54.7984L218.193 55.2684C217.886 55.6084 217.509 55.8651 217.063 56.0384C216.616 56.2117 216.136 56.2984 215.623 56.2984ZM220.872 56.2384V49.2384H225.672V49.8784H221.612V55.5984H225.822V56.2384H220.872ZM221.532 52.9984V52.3684H225.232V52.9984H221.532ZM228.762 56.2384V49.2384H229.502V55.5984H233.422V56.2384H228.762ZM235.851 56.2384V49.2384H236.591V55.5984H240.511V56.2384H235.851ZM242.939 56.2384V49.2384H247.739V49.8784H243.679V55.5984H247.889V56.2384H242.939ZM243.599 52.9984V52.3684H247.299V52.9984H243.599ZM250.829 56.2384V49.2384H251.439L256.269 55.3184H255.949V49.2384H256.679V56.2384H256.069L251.249 50.1584H251.569V56.2384H250.829ZM263.203 56.2984C262.677 56.2984 262.19 56.2117 261.743 56.0384C261.297 55.8584 260.91 55.6084 260.583 55.2884C260.257 54.9684 260 54.5917 259.813 54.1584C259.633 53.7251 259.543 53.2517 259.543 52.7384C259.543 52.2251 259.633 51.7517 259.813 51.3184C260 50.8851 260.257 50.5084 260.583 50.1884C260.917 49.8684 261.307 49.6217 261.753 49.4484C262.2 49.2684 262.687 49.1784 263.213 49.1784C263.72 49.1784 264.197 49.2651 264.643 49.4384C265.09 49.6051 265.467 49.8584 265.773 50.1984L265.303 50.6684C265.017 50.3751 264.7 50.1651 264.353 50.0384C264.007 49.9051 263.633 49.8384 263.233 49.8384C262.813 49.8384 262.423 49.9117 262.063 50.0584C261.703 50.1984 261.39 50.4017 261.123 50.6684C260.857 50.9284 260.647 51.2351 260.493 51.5884C260.347 51.9351 260.273 52.3184 260.273 52.7384C260.273 53.1584 260.347 53.5451 260.493 53.8984C260.647 54.2451 260.857 54.5517 261.123 54.8184C261.39 55.0784 261.703 55.2817 262.063 55.4284C262.423 55.5684 262.813 55.6384 263.233 55.6384C263.633 55.6384 264.007 55.5717 264.353 55.4384C264.7 55.3051 265.017 55.0917 265.303 54.7984L265.773 55.2684C265.467 55.6084 265.09 55.8651 264.643 56.0384C264.197 56.2117 263.717 56.2984 263.203 56.2984ZM268.453 56.2384V49.2384H273.253V49.8784H269.193V55.5984H273.403V56.2384H268.453ZM269.113 52.9984V52.3684H272.813V52.9984H269.113ZM276.36 56.2884C276.214 56.2884 276.087 56.2351 275.98 56.1284C275.88 56.0217 275.83 55.8917 275.83 55.7384C275.83 55.5784 275.88 55.4484 275.98 55.3484C276.087 55.2484 276.214 55.1984 276.36 55.1984C276.507 55.1984 276.63 55.2484 276.73 55.3484C276.837 55.4484 276.89 55.5784 276.89 55.7384C276.89 55.8917 276.837 56.0217 276.73 56.1284C276.63 56.2351 276.507 56.2884 276.36 56.2884ZM279.68 56.2884C279.533 56.2884 279.406 56.2351 279.3 56.1284C279.2 56.0217 279.15 55.8917 279.15 55.7384C279.15 55.5784 279.2 55.4484 279.3 55.3484C279.406 55.2484 279.533 55.1984 279.68 55.1984C279.826 55.1984 279.95 55.2484 280.05 55.3484C280.156 55.4484 280.21 55.5784 280.21 55.7384C280.21 55.8917 280.156 56.0217 280.05 56.1284C279.95 56.2351 279.826 56.2884 279.68 56.2884ZM282.999 56.2884C282.852 56.2884 282.725 56.2351 282.619 56.1284C282.519 56.0217 282.469 55.8917 282.469 55.7384C282.469 55.5784 282.519 55.4484 282.619 55.3484C282.725 55.2484 282.852 55.1984 282.999 55.1984C283.145 55.1984 283.269 55.2484 283.369 55.3484C283.475 55.4484 283.529 55.5784 283.529 55.7384C283.529 55.8917 283.475 56.0217 283.369 56.1284C283.269 56.2351 283.145 56.2884 282.999 56.2884Z" fill="white"/>
<path d="M81.73 39.7946C79.0477 39.7946 77.0555 39.5732 75.7534 39.1305C74.4513 38.6748 73.286 37.8935 72.2573 36.7867C71.3068 35.7972 70.6362 34.6774 70.2456 33.4274C69.855 32.1774 69.6597 30.4196 69.6597 28.1539V11.0836H75.6948V27.9586C75.6948 29.6383 75.7664 30.8232 75.9097 31.5133C76.0659 32.1904 76.3263 32.7373 76.6909 33.1539C77.2638 33.831 77.967 34.3128 78.8003 34.5992C79.6336 34.8857 80.786 35.0289 82.2573 35.0289H89.3667V39.7946H81.73ZM98.9565 39.7946H92.6479V11.0836H98.9565V39.7946ZM104.953 11.0836H113.82L121.144 33.1149L128.468 11.0836H137.296V39.7946H131.378L131.867 17.4313L124.503 39.7946H118.097L110.5 17.1969L111.105 39.7946H104.953V11.0836ZM149.582 39.7946H143.273V11.0836H149.582V39.7946ZM161.847 16.1227H152.57V11.1227H177.414V16.1227H168.097V39.7946H161.847V16.1227ZM191.73 39.7946C189.048 39.7946 187.056 39.5732 185.753 39.1305C184.451 38.6748 183.286 37.8935 182.257 36.7867C181.307 35.7972 180.636 34.6774 180.246 33.4274C179.855 32.1774 179.66 30.4196 179.66 28.1539V11.0836H185.695V27.9586C185.695 29.6383 185.766 30.8232 185.91 31.5133C186.066 32.1904 186.326 32.7373 186.691 33.1539C187.264 33.831 187.967 34.3128 188.8 34.5992C189.634 34.8857 190.786 35.0289 192.257 35.0289H199.367V39.7946H191.73ZM214.445 16.0836C212.257 16.0836 210.604 16.6305 209.484 17.7242C208.377 18.818 207.765 20.4912 207.648 22.7438L224.367 22.7633V27.7633H207.609C207.622 30.2633 208.149 32.0602 209.191 33.1539C210.246 34.2477 211.997 34.7946 214.445 34.7946H224.367V39.7946H214.152C211.899 39.7946 210.128 39.6058 208.839 39.2281C207.55 38.8375 206.339 38.1865 205.207 37.275C203.735 36.1031 202.628 34.5797 201.886 32.7047C201.157 30.8167 200.792 28.5641 200.792 25.9469C200.792 20.8688 201.893 17.1253 204.093 14.7164C206.294 12.2946 209.705 11.0836 214.328 11.0836H224.367V16.0836H214.445ZM253.917 16.2008H238.996C237.394 16.2008 236.216 16.5003 235.46 17.0992C234.718 17.6982 234.347 18.6487 234.347 19.9508C234.347 20.9925 234.666 21.7737 235.304 22.2946C235.942 22.8154 236.893 23.0758 238.156 23.0758H246.144C249.451 23.0758 251.802 23.7008 253.195 24.9508C254.601 26.2008 255.304 28.2841 255.304 31.2008C255.304 34.1565 254.497 36.331 252.882 37.7242C251.268 39.1045 248.729 39.7946 245.265 39.7946H229.191V34.6774H244.308C246.027 34.6774 247.238 34.43 247.941 33.9352C248.644 33.4274 248.996 32.594 248.996 31.4352C248.996 30.2373 248.67 29.3844 248.019 28.8766C247.381 28.3688 246.281 28.1149 244.718 28.1149H237.589C234.282 28.1149 231.86 27.4573 230.324 26.1422C228.8 24.8141 228.039 22.7242 228.039 19.8727C228.039 16.8258 228.839 14.5992 230.441 13.193C232.056 11.7867 234.614 11.0836 238.117 11.0836H253.917V16.2008ZM284.855 16.2008H269.933C268.332 16.2008 267.153 16.5003 266.398 17.0992C265.656 17.6982 265.285 18.6487 265.285 19.9508C265.285 20.9925 265.604 21.7737 266.242 22.2946C266.88 22.8154 267.83 23.0758 269.093 23.0758H277.082C280.389 23.0758 282.739 23.7008 284.132 24.9508C285.539 26.2008 286.242 28.2841 286.242 31.2008C286.242 34.1565 285.434 36.331 283.82 37.7242C282.205 39.1045 279.666 39.7946 276.203 39.7946H260.128V34.6774H275.246C276.964 34.6774 278.175 34.43 278.878 33.9352C279.582 33.4274 279.933 32.594 279.933 31.4352C279.933 30.2373 279.608 29.3844 278.957 28.8766C278.319 28.3688 277.218 28.1149 275.656 28.1149H268.527C265.22 28.1149 262.798 27.4573 261.261 26.1422C259.738 24.8141 258.976 22.7242 258.976 19.8727C258.976 16.8258 259.777 14.5992 261.378 13.193C262.993 11.7867 265.552 11.0836 269.054 11.0836H284.855V16.2008Z" fill="#71BF44"/>
</svg>
